<svg baseProfile="full" height="100%" version="1.1" viewBox="30.0,0.0,540.0,540.0" width="100%" xmlns="http://www.w3.org/2000/svg" xmlns:ev="http://www.w3.org/2001/xml-events" xmlns:xlink="http://www.w3.org/1999/xlink"><defs /><g><line stroke="lightgrey" stroke-dasharray="2" x1="270.0" x2="279.0" y1="15.0" y2="15.0" /><line stroke="lightgrey" stroke-dasharray="2" x1="240.0" x2="279.0" y1="45.0" y2="45.0" /><line stroke="lightgrey" stroke-dasharray="2" x1="210.0" x2="279.0" y1="75.0" y2="75.0" /><line stroke="lightgrey" stroke-dasharray="2" x1="180.0" x2="279.0" y1="105.0" y2="105.0" /><line stroke="lightgrey" stroke-dasharray="2" x1="150.0" x2="279.0" y1="135.0" y2="135.0" /><line stroke="lightgrey" stroke-dasharray="2" x1="120.0" x2="279.0" y1="165.0" y2="165.0" /><line stroke="lightgrey" stroke-dasharray="2" x1="90.0" x2="279.0" y1="195.0" y2="195.0" /><line stroke="lightgrey" stroke-dasharray="2" x1="60.0" x2="279.0" y1="225.0" y2="225.0" /><line stroke="lightgrey" stroke-dasharray="2" x1="210.0" x2="279.0" y1="255.0" y2="255.0" /><line stroke="lightgrey" stroke-dasharray="2" x1="180.0" x2="279.0" y1="285.0" y2="285.0" /><line stroke="lightgrey" stroke-dasharray="2" x1="240.0" x2="279.0" y1="315.0" y2="315.0" /><line stroke="lightgrey" stroke-dasharray="2" x1="180.0" x2="219.0" y1="345.0" y2="345.0" /><line stroke="lightgrey" stroke-dasharray="2" x1="150.0" x2="219.0" y1="375.0" y2="375.0" /><line stroke="lightgrey" stroke-dasharray="2" x1="120.0" x2="219.0" y1="405.0" y2="405.0" /><line stroke="lightgrey" stroke-dasharray="2" x1="90.0" x2="219.0" y1="435.0" y2="435.0" /><line stroke="lightgrey" stroke-dasharray="2" x1="60.0" x2="219.0" y1="465.0" y2="465.0" /><line stroke="lightgrey" stroke-dasharray="2" x1="90.0" x2="219.0" y1="495.0" y2="495.0" /><line stroke="lightgrey" stroke-dasharray="2" x1="150.0" x2="219.0" y1="525.0" y2="525.0" /></g><g><line stroke="#53c653" stroke-width="3" x1="195.0" x2="195.0" y1="75.0" y2="255.0" /><line stroke="#53c6c6" stroke-width="3" x1="165.0" x2="165.0" y1="105.0" y2="285.0" /><line stroke="#c6c653" stroke-width="3" x1="225.0" x2="225.0" y1="45.0" y2="315.0" /><line stroke="#c65353" stroke-width="3" x1="255.0" x2="255.0" y1="15.0" y2="300.0" /><line stroke="#c653c6" stroke-width="3" x1="105.0" x2="105.0" y1="165.0" y2="330.0" /><line stroke="#5353c6" stroke-width="3" x1="135.0" x2="135.0" y1="135.0" y2="330.0" /><line stroke="#8cd98c" stroke-width="3" x1="165.0" x2="165.0" y1="285.0" y2="345.0" /><line stroke="#c65353" stroke-width="3" x1="75.0" x2="75.0" y1="195.0" y2="435.0" /><line stroke="#d98c8c" stroke-width="3" x1="45.0" x2="45.0" y1="225.0" y2="465.0" /><line stroke="#993333" stroke-width="3" x1="75.0" x2="75.0" y1="435.0" y2="495.0" /><line stroke="#d98c8c" stroke-width="3" x1="105.0" x2="105.0" y1="405.0" y2="480.0" /><line stroke="#999933" stroke-width="3" x1="45.0" x2="45.0" y1="465.0" y2="510.0" /><line stroke="#339933" stroke-width="3" x1="75.0" x2="75.0" y1="495.0" y2="510.0" /><line stroke="#d98cd9" stroke-width="3" x1="135.0" x2="135.0" y1="375.0" y2="525.0" /><line stroke="#8c8cd9" stroke-width="3" x1="165.0" x2="165.0" y1="345.0" y2="510.0" /><line stroke="#d9d98c" stroke-width="3" x1="195.0" x2="195.0" y1="255.0" y2="510.0" /></g><g><line stroke="white" stroke-width="7.0" x1="210.0" x2="225.0" y1="315.0" y2="315.0" /><line stroke="white" stroke-width="7.0" x1="225.0" x2="240.0" y1="315.0" y2="315.0" /><line stroke="white" stroke-width="7.0" x1="120.0" x2="165.0" y1="345.0" y2="345.0" /><line stroke="white" stroke-width="7.0" x1="135.0" x2="150.0" y1="375.0" y2="375.0" /><line stroke="white" stroke-width="7.0" x1="105.0" x2="120.0" y1="405.0" y2="405.0" /><line stroke="white" stroke-width="7.0" x1="75.0" x2="90.0" y1="435.0" y2="435.0" /><line stroke="white" stroke-width="7.0" x1="45.0" x2="180.0" y1="465.0" y2="465.0" /><line stroke="white" stroke-width="7.0" x1="60.0" x2="75.0" y1="495.0" y2="495.0" /><line stroke="white" stroke-width="7.0" x1="75.0" x2="150.0" y1="495.0" y2="495.0" /><line stroke="white" stroke-width="7.0" x1="60.0" x2="135.0" y1="525.0" y2="525.0" /><line stroke="white" stroke-width="7.0" x1="135.0" x2="180.0" y1="525.0" y2="525.0" /></g><g><path d="M 195.0,300.0 a15.0,15.0 0 0,0 15.0,15.0" fill="none" stroke="#d9d98c" stroke-width="3" /><line stroke="#d9d98c" stroke-width="3" x1="210.0" x2="225.0" y1="315.0" y2="315.0" /><path d="M 255.0,300.0 a15.0,15.0 0 0,1 -15.0,15.0" fill="none" stroke="#c65353" stroke-width="3" /><line stroke="#c65353" stroke-width="3" x1="225.0" x2="240.0" y1="315.0" y2="315.0" /><path d="M 105.0,330.0 a15.0,15.0 0 0,0 15.0,15.0" fill="none" stroke="#c653c6" stroke-width="3" /><path d="M 135.0,330.0 a15.0,15.0 0 0,0 15.0,15.0" fill="none" stroke="#5353c6" stroke-width="3" /><line stroke="#c653c6" stroke-width="3" x1="120.0" x2="165.0" y1="345.0" y2="345.0" /><path d="M 165.0,360.0 a15.0,15.0 0 0,1 -15.0,15.0" fill="none" stroke="#8c8cd9" stroke-width="3" /><line stroke="#8c8cd9" stroke-width="3" x1="135.0" x2="150.0" y1="375.0" y2="375.0" /><path d="M 135.0,390.0 a15.0,15.0 0 0,1 -15.0,15.0" fill="none" stroke="#d98cd9" stroke-width="3" /><line stroke="#d98cd9" stroke-width="3" x1="105.0" x2="120.0" y1="405.0" y2="405.0" /><path d="M 105.0,420.0 a15.0,15.0 0 0,1 -15.0,15.0" fill="none" stroke="#d98c8c" stroke-width="3" /><line stroke="#d98c8c" stroke-width="3" x1="75.0" x2="90.0" y1="435.0" y2="435.0" /><path d="M 75.0,450.0 a15.0,15.0 0 0,1 -15.0,15.0" fill="none" stroke="#993333" stroke-width="3" /><path d="M 195.0,450.0 a15.0,15.0 0 0,1 -15.0,15.0" fill="none" stroke="#d9d98c" stroke-width="3" /><line stroke="#d9d98c" stroke-width="3" x1="45.0" x2="180.0" y1="465.0" y2="465.0" /><path d="M 45.0,480.0 a15.0,15.0 0 0,0 15.0,15.0" fill="none" stroke="#999933" stroke-width="3" /><line stroke="#999933" stroke-width="3" x1="60.0" x2="75.0" y1="495.0" y2="495.0" /><path d="M 105.0,480.0 a15.0,15.0 0 0,1 -15.0,15.0" fill="none" stroke="#d98c8c" stroke-width="3" /><path d="M 135.0,480.0 a15.0,15.0 0 0,1 -15.0,15.0" fill="none" stroke="#d98cd9" stroke-width="3" /><path d="M 165.0,480.0 a15.0,15.0 0 0,1 -15.0,15.0" fill="none" stroke="#8c8cd9" stroke-width="3" /><line stroke="#8c8cd9" stroke-width="3" x1="75.0" x2="150.0" y1="495.0" y2="495.0" /><path d="M 45.0,510.0 a15.0,15.0 0 0,0 15.0,15.0" fill="none" stroke="#999933" stroke-width="3" /><path d="M 75.0,510.0 a15.0,15.0 0 0,0 15.0,15.0" fill="none" stroke="#339933" stroke-width="3" /><line stroke="#999933" stroke-width="3" x1="60.0" x2="135.0" y1="525.0" y2="525.0" /><path d="M 165.0,510.0 a15.0,15.0 0 0,1 -15.0,15.0" fill="none" stroke="#8c8cd9" stroke-width="3" /><path d="M 195.0,510.0 a15.0,15.0 0 0,1 -15.0,15.0" fill="none" stroke="#d9d98c" stroke-width="3" /><line stroke="#d9d98c" stroke-width="3" x1="135.0" x2="180.0" y1="525.0" y2="525.0" /></g><g><circle cx="255.0" cy="15.0" fill="#c65353" id="Ndownload_vdjdb_release" r="14" stroke="#ff6b35" stroke-width="4" /><text dominant-baseline="middle" fill="#ff6b35" font-family="sans-serif" font-size="inherit" font-weight="bold" x="285.0" y="15.0">download_vdjdb_release</text><circle cx="225.0" cy="45.0" fill="#c6c653" id="Ndownload_imgt_germlines" r="14" stroke="#ff6b35" stroke-width="4" /><text dominant-baseline="middle" fill="#ff6b35" font-family="sans-serif" font-size="inherit" font-weight="bold" x="285.0" y="45.0">download_imgt_germlines</text><circle cx="195.0" cy="75.0" fill="#53c653" id="Nrun_optitype" r="10" stroke="white" stroke-width="2.0" /><text dominant-baseline="middle" fill="currentColor" font-family="sans-serif" font-size="inherit" x="285.0" y="75.0">run_optitype</text><circle cx="165.0" cy="105.0" fill="#53c6c6" id="Nhisat2_index" r="10" stroke="white" stroke-width="2.0" /><text dominant-baseline="middle" fill="currentColor" font-family="sans-serif" font-size="inherit" x="285.0" y="105.0">hisat2_index</text><circle cx="135.0" cy="135.0" fill="#5353c6" id="Ncreate_alignment_manifest" r="10" stroke="white" stroke-width="2.0" /><text dominant-baseline="middle" fill="currentColor" font-family="sans-serif" font-size="inherit" x="285.0" y="135.0">create_alignment_manifest</text><circle cx="105.0" cy="165.0" fill="#c653c6" id="Nbuild_reference_junctions" r="10" stroke="white" stroke-width="2.0" /><text dominant-baseline="middle" fill="currentColor" font-family="sans-serif" font-size="inherit" x="285.0" y="165.0">build_reference_junctions</text><circle cx="75.0" cy="195.0" fill="#c65353" id="Ndownload_human_proteome" r="10" stroke="white" stroke-width="2.0" /><text dominant-baseline="middle" fill="currentColor" font-family="sans-serif" font-size="inherit" x="285.0" y="195.0">download_human_proteome</text><circle cx="45.0" cy="225.0" fill="#d98c8c" id="Ndownload_mhcflurry_models" r="10" stroke="white" stroke-width="2.0" /><text dominant-baseline="middle" fill="currentColor" font-family="sans-serif" font-size="inherit" x="285.0" y="225.0">download_mhcflurry_models</text><circle cx="195.0" cy="255.0" fill="#d9d98c" id="Naggregate_hla_alleles" r="10" stroke="white" stroke-width="2.0" /><text dominant-baseline="middle" fill="currentColor" font-family="sans-serif" font-size="inherit" x="285.0" y="255.0">aggregate_hla_alleles</text><circle cx="165.0" cy="285.0" fill="#8cd98c" id="Nhisat2_align" r="10" stroke="white" stroke-width="2.0" /><text dominant-baseline="middle" fill="currentColor" font-family="sans-serif" font-size="inherit" x="285.0" y="285.0">hisat2_align</text><circle cx="225.0" cy="315.0" fill="#8cd9d9" id="Nfetch_vdjdb_panel" r="14" stroke="#ff6b35" stroke-width="4" /><text dominant-baseline="middle" fill="#ff6b35" font-family="sans-serif" font-size="inherit" font-weight="bold" x="285.0" y="315.0">fetch_vdjdb_panel  ← new (PR #457)</text><circle cx="165.0" cy="345.0" fill="#8c8cd9" id="Nfilter_junctions" r="10" stroke="white" stroke-width="2.0" /><text dominant-baseline="middle" fill="currentColor" font-family="sans-serif" font-size="inherit" x="225.0" y="345.0">filter_junctions</text><circle cx="135.0" cy="375.0" fill="#d98cd9" id="Nassemble_contigs" r="10" stroke="white" stroke-width="2.0" /><text dominant-baseline="middle" fill="currentColor" font-family="sans-serif" font-size="inherit" x="225.0" y="375.0">assemble_contigs</text><circle cx="105.0" cy="405.0" fill="#d98c8c" id="Ntranslate_peptides" r="10" stroke="white" stroke-width="2.0" /><text dominant-baseline="middle" fill="currentColor" font-family="sans-serif" font-size="inherit" x="225.0" y="405.0">translate_peptides</text><circle cx="75.0" cy="435.0" fill="#993333" id="Nproteome_filter_peptides" r="10" stroke="white" stroke-width="2.0" /><text dominant-baseline="middle" fill="currentColor" font-family="sans-serif" font-size="inherit" x="225.0" y="435.0">proteome_filter_peptides</text><circle cx="45.0" cy="465.0" fill="#999933" id="Nrun_mhcflurry" r="10" stroke="white" stroke-width="2.0" /><text dominant-baseline="middle" fill="currentColor" font-family="sans-serif" font-size="inherit" x="225.0" y="465.0">run_mhcflurry</text><circle cx="75.0" cy="495.0" fill="#339933" id="Naggregate_filtering_stats" r="10" stroke="white" stroke-width="2.0" /><text dominant-baseline="middle" fill="currentColor" font-family="sans-serif" font-size="inherit" x="225.0" y="495.0">aggregate_filtering_stats</text><circle cx="135.0" cy="525.0" fill="#339999" id="Ngenerate_report" r="10" stroke="white" stroke-width="2.0" /><text dominant-baseline="middle" fill="currentColor" font-family="sans-serif" font-size="inherit" x="225.0" y="525.0">generate_report</text></g></svg>