<?xml version="1.0" encoding="UTF-8"?>
<svg xmlns="http://www.w3.org/2000/svg" viewBox="0 0 700 280" width="700" height="280" font-family="ui-sans-serif,system-ui" font-size="13">
  <defs>
    <marker id="arrow-blue" viewBox="0 0 10 10" refX="9" refY="5" markerWidth="6" markerHeight="6" orient="auto">
      <path d="M0,0 L10,5 L0,10 z" fill="#3b82f6"/>
    </marker>
    <marker id="arrow-green" viewBox="0 0 10 10" refX="9" refY="5" markerWidth="6" markerHeight="6" orient="auto">
      <path d="M0,0 L10,5 L0,10 z" fill="#10b981"/>
    </marker>
  </defs>
  <circle cx="80" cy="80" r="40" fill="#e0e7ff" stroke="#6366f1" stroke-width="2"/>
  <text x="80" y="85" text-anchor="middle" fill="#4338ca" font-size="13" font-weight="bold">bead</text>
  <line x1="120" y1="80" x2="320" y2="80" stroke="#6366f1" stroke-width="2"/>
  <rect x="125" y="70" width="50" height="20" fill="#a5b4fc"/><text x="150" y="84" text-anchor="middle" font-size="11" fill="#1e1b4b">cell BC</text>
  <rect x="180" y="70" width="40" height="20" fill="#c7d2fe"/><text x="200" y="84" text-anchor="middle" font-size="11" fill="#1e1b4b">UMI</text>
  <rect x="225" y="70" width="90" height="20" fill="#ddd6fe"/><text x="270" y="84" text-anchor="middle" font-size="11" fill="#1e1b4b">poly-(dT) primer</text>
  <line x1="320" y1="110" x2="620" y2="110" stroke="#3b82f6" stroke-width="2.5" marker-end="url(#arrow-blue)"/>
  <text x="290" y="114" fill="#3b82f6" font-size="12">5'</text>
  <text x="625" y="114" fill="#3b82f6" font-size="12">3'</text>
  <text x="470" y="100" fill="#3b82f6" font-size="13" text-anchor="middle" font-style="italic">mRNA (poly-A captured)</text>
  <line x1="450" y1="135" x2="450" y2="158" stroke="#374151" stroke-width="1.5" marker-end="url(#arrow-blue)"/>
  <text x="465" y="152" fill="#374151" font-size="12">RT → first-strand cDNA</text>
  <text x="40" y="195" fill="#374151" font-size="13" font-weight="bold">Final insert (after second-strand + adapters):</text>
  <rect x="40" y="210" width="60" height="22" fill="#fef3c7"/><text x="70" y="225" text-anchor="middle" font-size="11">Read1 primer</text>
  <rect x="100" y="210" width="50" height="22" fill="#a5b4fc"/><text x="125" y="225" text-anchor="middle" font-size="11">cell BC</text>
  <rect x="150" y="210" width="40" height="22" fill="#c7d2fe"/><text x="170" y="225" text-anchor="middle" font-size="11">UMI</text>
  <rect x="190" y="210" width="30" height="22" fill="#ddd6fe"/><text x="205" y="225" text-anchor="middle" font-size="10">(dT)</text>
  <rect x="220" y="210" width="280" height="22" fill="#dbeafe"/><text x="360" y="225" text-anchor="middle" font-size="12" fill="#1e3a8a" font-weight="bold">cDNA — SENSE strand</text>
  <rect x="500" y="210" width="60" height="22" fill="#fef3c7"/><text x="530" y="225" text-anchor="middle" font-size="11">Read2 primer</text>
  <line x1="105" y1="252" x2="190" y2="252" stroke="#374151" stroke-width="2" marker-end="url(#arrow-blue)"/>
  <text x="148" y="268" fill="#374151" font-size="12" text-anchor="middle">R1 = 28 bp (BC+UMI)</text>
  <line x1="500" y1="252" x2="220" y2="252" stroke="#10b981" stroke-width="2" marker-end="url(#arrow-green)"/>
  <text x="360" y="268" fill="#10b981" font-size="12" text-anchor="middle" font-weight="bold">R2 = cDNA (sense → forward-stranded)</text>
</svg>
